<svg width="960" height="540" viewBox="0 0 960 540" fill="none" xmlns="http://www.w3.org/2000/svg" role="img" aria-label="Dispatch dashboard illustration">
  <rect width="960" height="540" rx="24" fill="#0B1220"/>
  <rect x="24" y="24" width="912" height="492" rx="20" fill="#111827" stroke="#334155"/>
  <rect x="64" y="76" width="320" height="24" rx="8" fill="#1F2937"/>
  <rect x="64" y="118" width="210" height="16" rx="8" fill="#0F172A"/>
  <rect x="64" y="170" width="832" height="1" fill="#1E293B"/>

  <rect x="64" y="198" width="260" height="136" rx="14" fill="#0F172A" stroke="#1E293B"/>
  <text x="84" y="226" fill="#94A3B8" font-size="14" font-family="Inter, Segoe UI, Arial, sans-serif">Live Load Match</text>
  <text x="84" y="260" fill="#E2E8F0" font-size="24" font-family="Inter, Segoe UI, Arial, sans-serif" font-weight="700">Dallas → Atlanta</text>
  <text x="84" y="288" fill="#34D399" font-size="20" font-family="Inter, Segoe UI, Arial, sans-serif" font-weight="700">$2,850</text>
  <rect x="84" y="304" width="120" height="12" rx="6" fill="#14532D"/>

  <rect x="350" y="198" width="260" height="136" rx="14" fill="#0F172A" stroke="#1E293B"/>
  <text x="370" y="226" fill="#94A3B8" font-size="14" font-family="Inter, Segoe UI, Arial, sans-serif">Negotiation</text>
  <path d="M378 292H584" stroke="#334155" stroke-width="2"/>
  <circle cx="420" cy="292" r="10" fill="#F59E0B"/>
  <circle cx="510" cy="292" r="10" fill="#10B981"/>
  <text x="370" y="260" fill="#E2E8F0" font-size="22" font-family="Inter, Segoe UI, Arial, sans-serif" font-weight="700">+11.4% Rate Lift</text>

  <rect x="636" y="198" width="260" height="136" rx="14" fill="#0F172A" stroke="#1E293B"/>
  <text x="656" y="226" fill="#94A3B8" font-size="14" font-family="Inter, Segoe UI, Arial, sans-serif">Payout</text>
  <text x="656" y="262" fill="#E2E8F0" font-size="28" font-family="Inter, Segoe UI, Arial, sans-serif" font-weight="800">24h</text>
  <text x="656" y="288" fill="#34D399" font-size="16" font-family="Inter, Segoe UI, Arial, sans-serif">Paperwork auto-submitted</text>

  <rect x="64" y="364" width="832" height="112" rx="14" fill="#0F172A" stroke="#1E293B"/>
  <path d="M90 433L170 408L250 426L330 394L410 422L490 382L570 404L650 374L730 396L810 362" stroke="#34D399" stroke-width="4" stroke-linecap="round" stroke-linejoin="round"/>
</svg>
